<svg xmlns="http://www.w3.org/2000/svg" viewBox="0 0 238 25"><path d="M137.758 14.757c.082 1.659-1.66 3.085-3.379 4.099-3.999 2.358-8.827 3.676-15.954 4.833-7.993 1.297-23.362 1.323-32.223.383l4.87-3.881c7.851 1.105 25.19.464 32.24-1.899 3.669-1.229 5.147-3.03-.111-4.136-2.953-.621-8.25-.904-12.764-.72l3.38-3.163c5.674-.065 12.877-.698 16.255-1.563 1.77-.453 3.416-1.2 3.396-1.954-.021-.768-1.734-1.267-3.822-1.52-3.969-.48-11.24-.34-21.063.665l5.017-4.053c8.275-1.064 21.972-1.156 26.992.756 3.724 1.417 4.178 4.273-.475 6.672-1.637.844-3.908 1.636-6.906 2.295 2.788.459 4.472 1.64 4.548 3.186zM13.495 15.853c12.53-5.901 28.324-9.227 46.689-10.095L64.256 1.7c-22.063.654-40.243 3.65-56.13 11.255C4.599 14.644.56 17.07.364 19.832c-.2 2.807 3.83 4.192 8.163 4.73 7.636.946 20.248.23 26.711-.915 3.123-.553 6.59-1.522 9.749-2.869 4.117-1.755 6.415-4.001 9.11-6.695 1.21-1.21 2.385-2.43 3.492-3.561-7.053.073-19.25.854-24.81 2.479-.715.209-1.043.354-1.665.735a16.4 16.4 0 0 0-2.985 2.342c4.494-.357 14.593-1.56 20.27-1.82-.635.465-1.316.976-2.016 1.47-1.444 1.017-2.387 1.553-4.094 2.106-2.1.678-4.808 1.286-7.581 1.705-5.996.907-16.111 1.515-21.344 1.044-2.03-.182-3.958-.627-3.933-1.64.026-1.006 1.913-2.077 4.064-3.09M102.038 5.76h-.017zm-.017 0c2.652.059 3.8-.446 5.135-1.795a42 42 0 0 0 2.422-2.666c-13.307-.324-30.483-.167-41.118.292l-4.139 3.976c4.295-.056 9.752-.078 15.556-.062a34610 34610 0 0 1-16.351 19.473q2.098 0 4.197-.03c.711-.011 1.573-.123 2.781-.78 1.152-.628 1.878-1.35 2.378-1.88 5.623-5.961 9.87-10.677 14.92-16.738 4.903.042 9.794.111 14.219.21m135.145-3.235-3.395 4.356c-.218.28-.5.385-.91.384-5.039-.01-10.913.007-16.053.428-1.68.137-3.1.425-4.019.968l18.303-.014c1.267-.001 1.532.767 1.144 1.554-1.505 3.053-4.011 6.546-7.498 9.484-2.305 1.942-4.618 3.356-8.957 4.168-4.295.804-10.04.884-14.569.918-5.905.043-11.813.026-17.718.032-1.82.002-4.437-.263-8.288-1.232-4.663-1.174-10.126-3.053-12.506-4.181-1.098-.52-1.118-1.135-.42-2.02l5.9-7.477c.225-.286.573-.453.9-.452 1.95.005 3.552.008 5.07.01 1.263 0 3.53-.5 4.105-1.188l-11.471-.048-12.538 15.357c-.605.742-1.265 1.155-2.369 1.167q-5.68.06-11.363.118c-1.555.017-1.943-.722-1.042-1.842l17.37-21.62c.285-.354.521-.479.973-.48l29.51-.06c3.01-.005 5.415.418 6.632 2.499 1.159 1.981.28 3.7-.911 5.33a215 215 0 0 1-4.048 5.356c-.763.977-1.451 1.177-2.618 1.26-.892.065-3.441.248-4.462.32-.779.057-1.288.239-1.894.714 2.163.226 4.315.288 7.603.344 6.601.11 11.04.06 17.69-.164 2.829-.095 4.59-.532 5.472-1.243l-15.828-.142c-2.718-.024-3.734-1.482-1.816-4.3 1.768-2.598 3.975-5.1 7.992-7.243 4.08-2.177 7.914-2.84 11.094-3.095 6.41-.515 17.117-.539 23.677-.453 1.728.023 2.202 1.276 1.258 2.487m-2.479-.339c-6.129-.07-16.133-.03-22.114.448-3.278.262-7.117.964-11.1 3.255-3.989 2.293-5.749 4.794-6.97 7.02l18.915.221c.628.008 1.23.101 1.46.62.228.516-.113 1-.476 1.398-.572.63-1.295 1.217-2.269 1.883-1.34.918-3.864 1.54-6.329 1.629-7 .25-12.56.299-18.647.175-2.967-.06-6.408-.162-9.351-.59-1.095-.158-1.432-.99-.66-1.955.22-.274.668-.797.89-1.038 1.24-1.346 2.496-1.702 3.834-1.797l4.588-.33c.471-.034.576-.088.795-.367a190 190 0 0 0 3.813-5.026c.877-1.197 1.67-2.462.82-3.497-.888-1.078-3.017-1.228-4.97-1.223l-28.65.066-15.75 19.595 9.324-.09c.356-.003.512-.112.665-.3L165.317 6.59c.362-.444.57-.543 1.106-.54l14.147.058c1.16.005 1.61.813.95 1.737-.867 1.198-1.978 2.475-3.115 2.949-1.644.684-3.077.812-4.219.816-1.38.005-3.401-.003-4.601-.003l-4.956 6.28c2.025.914 6.695 2.513 11.614 3.703 3.458.837 5.746 1.05 7.528 1.05 6.994-.006 13.6-.008 19.444-.043 7.945-.048 15.397-.661 19.871-4.368 2.815-2.332 5.005-5.056 6.277-7.416l-20.604.012c-1.309 0-1.778-1.097-.71-1.942.883-.7 1.898-1.324 3.007-1.875 1.82-.904 3.109-1.242 5.185-1.436 4.764-.446 11.049-.472 16.175-.47z"/></svg>