<svg xmlns="http://www.w3.org/2000/svg" viewBox="0 0 151 25"><path d="M106.777 4.86c-4.987-.219-9.878-.094-15.48-.227-5.343 6.405-9.84 11.386-15.895 17.793-1.362 1.23-2.887 2.318-4.891 2.334h-4.389L83.103 4.547c-5.852.043-10.611.076-16.155.062L71.245.48c11.04-.476 28.872-.64 42.687-.303-.762.946-1.865 2.105-2.698 2.954-1.022 1.042-2.413 1.816-4.456 1.727zm-86.51 7.826C33.468 7.75 46.096 5.73 63.014 4.729L67.3.46c-22.036.7-38.509 3.457-54.18 9.682-18.74 7.444-17.65 15.266 5.648 14.84 16.387-.299 24.865-2.097 32.542-6.639 3.084-2.469 6.228-5.797 8.975-8.603-5.594.03-11.722.384-19.698 1.368-2.233.276-4.291.624-6.602 1.297-.998.275-2.106 1.042-3 1.728-.631.483-1.156.967-1.691 1.451 4.726-.375 15.35-1.64 21.323-1.915-.981.565-2.922 2.283-4.574 3.093-5.343 2.126-9.896 2.49-15.464 3.141-27.202 2.125-24.872-1.776-10.313-7.218zM147.952 2.243c-6.514-2.33-19.876-1.608-27.33-.765l-5.08 4.104c23.942-2.45 29.538.369 22.215 2.716-2.065.662-10.19 1.683-16.915 1.71l-3.423 3.203c.988-.032 1.441-.053 2.372-.056 20.107-.065 18.571 5.747-4.045 7.206-7.943.513-14.182.07-17.935-.31l-4.932 3.93c2.876.338 9.941.802 19.558.617 30.191-.58 39.202-11.233 28.042-13.275 11.883-2.611 12.48-7.29 7.473-9.08"/></svg>