<svg xmlns="http://www.w3.org/2000/svg" viewBox="0 0 121 25"><path d="M70.01 3.833a517 517 0 0 0-6.007 6.333c-3.81 4.063-7.749 8.264-12.131 12.4-1.048 1.083-2.492 1.704-4.063 1.745-.359.005-.591.01-.776.013-.22.005-.372.009-.585.009-.287 0-.686-.006-1.513-.022l-.246-.005.163-.184a562 562 0 0 0 5.27-6.05C54.471 13.03 58.97 7.819 63.038 3.79c-4.335-.07-6.848-.024-13.496.172l-.303.009L51.16 2.2c1.005-.71 1.73-.908 2.649-1.16l.16-.04c.816-.196 1.19-.286 2.101-.377 6.077-.671 9.238-.653 18.613-.602l.817.005c6.172-.02 10.779.127 14.06.448l.242.023-2.615 2.556c-.82.84-2.413 1.407-3.81 1.355h-.006c-3.459-.298-6.058-.37-9.656-.468a988 988 0 0 1-3.705-.108zM8.607 13.237C14.46 7.853 24.67 4.88 39.817 4.145c1.59-.068 2.164-.193 3.173-.95l2.756-2.175-.311-.01C38.803.81 16.266.878 4.742 10.074l-.002.002c-3.466 2.877-4.953 6.16-4.08 9.008.902 2.946 4.217 4.978 8.864 5.436 2.306.296 4.595.43 6.812.43 7.806 0 14.714-1.657 18.283-3.72a36 36 0 0 0 1.798-1.216c1.834-1.62 3.68-3.484 4.933-4.983l.344-.368c.721-.767 1.403-1.49 1.161-2.089-.235-.582-1.337-.901-3.472-1.004-.752.003-1.48-.006-2.184-.017-2.833-.039-5.512-.077-9.59.73-1.995.462-3.495.942-4.35 1.799-.234.347-.2.568-.128.692.12.213.426.303.907.278 3.954-.23 8.214-.425 12.614-.32-.874.812-4.137 3.498-4.784 3.667-7.697 2.054-13.044 2.49-20.427 1.666-2.692-.45-4.327-1.39-4.73-2.722-.359-1.187.297-2.608 1.896-4.106M120.363.694C114.138.021 106.91-.48 100.5.891c-6.375 1.362-10.235 3.601-10.325 5.99-.073 1.923 2.318 3.698 6.732 4.996 2.38.727 3.976 1.225 6.06 2.013 1.061.401 1.72 1.07 1.762 1.789.035.595-.324 1.512-2.23 2.501-3.332 1.737-11.914 2.78-18.478 3.014-6.408.229-10.354.164-15.644.038h-.049l-3.1 3.111.246.018c5.88.426 11.324.639 16.43.639 3.93 0 7.66-.126 11.229-.377 9.26-.636 14.145-2.322 16.234-3.27 3.354-1.523 5.357-3.73 5.358-5.903 0-1.57-1.079-2.927-3.039-3.82-2.845-1.298-5.684-2.088-8.971-3.003l-1.008-.281c-1.303-.365-2.002-.89-1.968-1.48.044-.77 1.476-1.82 4.516-2.301 4.873-.775 7.667-.832 12.992-.269l.057.006 3.28-3.584z"/></svg>