<svg xmlns="http://www.w3.org/2000/svg" viewBox="0 0 24 24" width="100%" height="100%"><path d="M4 17.05v3h3v1H3v-4zm17 0v4h-4v-1h3v-3zM9.79 6.82c.31-.19.71.03.71.4q-.01.25-.23.4L8.2 8.86l-.3.3 4.1 2.4 1.74-1.02a.5.5 0 0 1 .76.43.5.5 0 0 1-.24.43l-1.76 1.05v4.7c.1 0 .2 0 .3-.1l3-1.8c.45-.34.61-.86.67-1.23a.5.5 0 0 1 .49-.42v.02a.5.5 0 0 1 .5.57 2.5 2.5 0 0 1-1.16 1.78l-3 1.8c-.4.3-.8.4-1.3.4s-.9-.2-1.3-.4l-3-1.8c-.7-.4-1.2-1.2-1.2-2.1v-3.7c0-.8.5-1.7 1.2-2.1zM7.5 13.95c0 .5.3 1 .7 1.3l3 1.9c.1 0 .2.1.3.1v-4.7l-4-2.4zM16.8 1.8c.1-.32.3-.32.4 0 .33 1.7.5 2.55 1 3.06.51.5 1.36.67 3.07 1 .3.1.3.3 0 .41-1.7.32-2.55.48-3.05.98-.52.5-.68 1.36-1.01 3.08-.1.31-.31.31-.42 0-.32-1.7-.48-2.56-1-3.07-.5-.5-1.35-.67-3.06-.99-.3-.1-.3-.31 0-.42 1.7-.32 2.56-.48 3.07-.99.5-.5.67-1.36 1-3.06M7 3.05v1H4v3H3v-4z"/></svg>