<svg xmlns="http://www.w3.org/2000/svg" viewBox="0 0 24 24" width="100%" height="100%"><path d="M3.5 11.66v1.2l5.2 3.47-5.2 3.48V21l7-4.67zm15 9.34h-7v-1h7zM12.8 2.73c.1-.3.3-.3.4 0 .33 1.7.5 2.56 1 3.07s1.36.67 3.07 1c.3.1.3.3 0 .4-1.7.33-2.55.5-3.06.99-.51.5-.68 1.36-1 3.08-.1.3-.31.3-.42 0-.32-1.7-.49-2.56-1-3.07-.5-.5-1.35-.67-3.06-1-.3-.1-.3-.3 0-.4 1.7-.33 2.56-.5 3.07-1s.67-1.36 1-3.07m5.08 6.9c.06-.17.18-.17.24 0 .18.95.27 1.42.55 1.7s.75.37 1.7.55c.17.06.17.18 0 .24-.94.17-1.41.26-1.7.54-.28.28-.37.76-.55 1.71-.06.17-.18.17-.24 0-.18-.95-.27-1.42-.55-1.7s-.75-.37-1.7-.55c-.17-.06-.17-.18 0-.24.95-.18 1.42-.27 1.7-.55s.37-.75.55-1.7"/></svg>