<svg xmlns="http://www.w3.org/2000/svg" viewBox="0 0 24 24" width="100%" height="100%"><path d="M8.35 4.5C7.83 3.62 7.1 3 6.14 3q-.72-.01-1.64.52c-1.82 1.07-1.78 2.51-.99 3.84l6.71 11.34L15 21.51V16zM4.38 6.85q-.49-.83-.34-1.4c.15-.57.43-.74.98-1.07Q5.67 4 6.15 4c.19 0 .75 0 1.35 1.01l.72 1.25L5.06 8zM14 19.76l-3.05-1.8-5.39-9.11 3.15-1.74L14 16.25zm2.8-18.03c.1-.3.3-.3.4 0 .33 1.7.5 2.56 1 3.07s1.36.67 3.07 1c.3.1.3.3 0 .4-1.7.33-2.55.5-3.06.99-.51.5-.68 1.36-1 3.08-.1.3-.31.3-.42 0-.32-1.7-.49-2.56-1-3.07-.5-.5-1.35-.67-3.06-1-.3-.1-.3-.3 0-.4 1.7-.33 2.56-.5 3.07-1s.67-1.36 1-3.07"/></svg>