<svg xmlns="http://www.w3.org/2000/svg" viewBox="0 0 24 24" width="100%" height="100%"><path d="M10.5 5c.28 0 .5.22.5.5s-.22.5-.5.5H4a1 1 0 0 0-1 1v10c0 .5.58 1 1 1h16a1 1 0 0 0 1-1V9.99c0-.28.22-.5.5-.5s.5.22.5.5V17a2 2 0 0 1-2 2H4c-1.08 0-2-1-1.99-2V7C2 6.15 3 5 4 5zm1.07 9.03L14 12.01 18.53 17h-1.36l-3.28-3.6-1.65 1.38L14.26 17H12.9l-6.01-6.61L4 12.8v-1.3L7 9zm5.72-11.8c.1-.3.31-.3.42 0 .32 1.7.48 2.56 1 3.07.5.5 1.35.67 3.06 1 .3.1.3.3 0 .4-1.7.33-2.55.5-3.06.99-.51.5-.67 1.36-1 3.08-.1.3-.31.3-.42 0-.32-1.7-.49-2.56-1-3.07-.5-.5-1.35-.67-3.06-1-.3-.1-.3-.3 0-.4 1.7-.33 2.56-.5 3.07-1s.67-1.36 1-3.07"/></svg>