<svg xmlns="http://www.w3.org/2000/svg" viewBox="0 0 24 24" width="100%" height="100%"><path d="M5.5 19.5h-1v-14h1zm-2.5-9H2v4h1zm17.5.5c0-.28-.22-.5-.5-.5s-.5.22-.5.5v6.5h1zM18 14c0-.28-.22-.5-.5-.5s-.5.22-.5.5v2.02h1zm-2.5-3c0-.28-.22-.5-.5-.5s-.5.22-.5.5v8.5h1zm-2.49-1.5c0-.28-.22-.5-.5-.5s-.5.22-.5.5v12h1zm0-5v-1h-1v1c0 .28.22.5.5.5s.5-.22.5-.5M10.5 7h-1v11h1zM8 8.5H7v8h1zm9.3-6.27c.1-.3.3-.3.4 0 .33 1.7.5 2.56 1 3.07s1.36.67 3.07 1c.3.1.3.3 0 .4-1.7.33-2.55.5-3.06.99-.51.5-.68 1.36-1 3.08-.1.3-.31.3-.42 0-.32-1.7-.49-2.56-1-3.07-.5-.5-1.35-.67-3.06-1-.3-.1-.3-.3 0-.4 1.7-.33 2.56-.5 3.07-1s.67-1.36 1-3.07"/></svg>