<svg xmlns="http://www.w3.org/2000/svg" viewBox="0 0 24 24" width="100%" height="100%"><path d="m19.3 20-4.8-4.75.75-.75L20 19.3V15h1v6h-6.01v-1zM3 9h1V4.7l4.75 4.8.75-.75L4.7 4H9V3H3zm10.85 4.15-3-3-.71.71 3 3zm3.44-10.92c.1-.3.31-.3.42 0 .32 1.7.48 2.56 1 3.07.5.5 1.35.67 3.06 1 .3.1.3.3 0 .4-1.7.33-2.55.5-3.06.99-.51.5-.68 1.36-1 3.08-.1.3-.31.3-.42 0-.32-1.7-.49-2.56-1-3.07-.5-.5-1.35-.67-3.06-1-.3-.1-.3-.3 0-.4 1.7-.33 2.56-.5 3.07-1s.67-1.36 1-3.07m-9.4 11.4c.05-.17.17-.17.23 0 .18.95.27 1.42.55 1.7s.75.37 1.7.55c.17.06.17.18 0 .24-.94.17-1.41.26-1.7.54-.28.28-.37.76-.55 1.71-.06.17-.18.17-.24 0-.18-.95-.27-1.42-.55-1.7s-.75-.37-1.7-.55c-.17-.06-.17-.18 0-.24.95-.18 1.42-.27 1.7-.55s.37-.75.55-1.7"/></svg>