<svg xmlns="http://www.w3.org/2000/svg" viewBox="0 0 24 24" width="100%" height="100%"><path d="M8 13v-1h2v1zm5.5 0v-1H11v1zm-1-3V9H8v1zm6 .5c.28 0 .5.22.5.5v9a2 2 0 0 1-2 2h-6l-6-6V4c0-1.1.9-2 2-2h5.5c.28 0 .5.22.5.5s-.22.5-.5.5H7a1 1 0 0 0-1 1v11h6v6h5a1 1 0 0 0 1-1v-9c0-.28.22-.5.5-.5M11 16H6.41L11 20.59zm4.8-13.77c.1-.3.3-.3.4 0 .33 1.7.5 2.56 1 3.07s1.36.67 3.07 1c.3.1.3.3 0 .4-1.7.33-2.55.5-3.06.99-.51.5-.68 1.36-1 3.08-.1.3-.31.3-.42 0-.32-1.7-.49-2.56-1-3.07-.5-.5-1.35-.67-3.06-1-.3-.1-.3-.3 0-.4 1.7-.33 2.56-.5 3.07-1s.67-1.36 1-3.07"/></svg>