<svg xmlns="http://www.w3.org/2000/svg" viewBox="0 0 24 24" width="100%" height="100%"><path d="M22 9.99V17a2 2 0 0 1-2 2H4c-1.08 0-2-1-1.99-2V7C2 6.15 3 5 4 5h6.5c.28 0 .5.22.5.5s-.22.5-.5.5H4a1 1 0 0 0-1 1v10c0 .5.58 1 1 1h16a1 1 0 0 0 1-1V9.99c0-.28.22-.5.5-.5s.5.22.5.5M9.5 8l6 4-6 4zm1 6.13L13.7 12l-3.2-2.13zm2.73-7.42c1.7.32 2.56.49 3.07 1 .5.5.67 1.35 1 3.06.1.3.3.3.4 0 .33-1.72.5-2.57 1.01-3.08.51-.5 1.37-.66 3.06-.98.3-.1.3-.31 0-.42-1.7-.32-2.56-.48-3.07-1-.5-.5-.67-1.35-1-3.06-.1-.3-.3-.3-.4 0-.33 1.7-.5 2.56-1 3.07-.51.5-1.36.67-3.07 1-.3.1-.3.3 0 .4"/></svg>